<svg width="106" height="106" viewBox="0 0 106 106" fill="none" xmlns="http://www.w3.org/2000/svg">
<g clip-path="url(#clip0_135_922)">
<path fill-rule="evenodd" clip-rule="evenodd" d="M0 53.2959C0 79.6458 19.1374 101.557 44.1667 106L44.1667 67.7207H30.9167V53L44.1667 53V41.2207C44.1667 27.9707 52.7041 20.6126 64.7792 20.6126C68.6041 20.6126 72.7292 21.2 76.5541 21.7874V35.3333H69.7833C63.3041 35.3333 61.8333 38.5707 61.8333 42.6959V53H75.9667L73.6126 67.7207L61.8333 67.7207L61.8333 106C86.8626 101.557 106 79.6502 106 53.2959C106 23.9825 82.15 0 53 0C23.85 0 0 23.9825 0 53.2959Z" fill="#2B84F8"/>
</g>
<defs>
<clipPath id="clip0_135_922">
<rect width="106" height="106" fill="white"/>
</clipPath>
</defs>
</svg>
