<svg width="149" height="53" viewBox="0 0 149 53" fill="none" xmlns="http://www.w3.org/2000/svg">
<g clip-path="url(#clip0_192_121)">
<path d="M122.155 9.0844L119.672 25.0837C119.01 29.374 117.303 32.6858 114.55 35.0193C111.797 37.3528 108.295 38.5216 104.045 38.5257C99.7889 38.5257 96.6491 37.3569 94.6252 35.0193C93.2873 33.474 92.5371 31.5002 92.3746 29.0978C92.2974 27.756 92.3687 26.4098 92.5873 25.0837L95.0706 9.0844H103.219L103.172 9.37978V9.38989L102.762 12.0234L100.777 24.835C100.393 27.31 100.605 29.0838 101.412 30.1565C102.22 31.2291 103.474 31.7642 105.175 31.7616C106.877 31.7616 108.292 31.2266 109.417 30.1565C110.543 29.0864 111.298 27.3125 111.683 24.835L114.127 9.0844H122.155Z" fill="#00CF4C"/>
<path d="M148.302 20.6523C147.593 18.9339 146.482 17.6003 144.97 16.6515C143.458 15.7027 141.686 15.2283 139.654 15.2283C137.65 15.2283 135.92 15.6407 134.462 16.4657C133.803 16.8416 133.198 17.3046 132.663 17.8423L133.011 15.5998H125.561L120.852 45.9467H128.676L130.22 35.9552C130.561 36.3799 130.961 36.753 131.409 37.0628C132.626 37.9018 134.181 38.3213 136.074 38.3213C138.077 38.3278 140.052 37.8463 141.827 36.9183C143.632 35.9824 145.157 34.6488 146.401 32.9175C147.645 31.1861 148.449 29.1392 148.812 26.7767C149.18 24.4122 149.009 22.3707 148.302 20.6523ZM140.91 26.7728C140.734 27.9005 140.372 28.8625 139.823 29.659C139.274 30.4555 138.619 31.0602 137.856 31.4732C137.1 31.8857 136.253 32.0997 135.392 32.0951C134.513 32.0951 133.755 31.8878 133.12 31.4732C132.485 31.0587 132.017 30.4539 131.716 29.659C131.411 28.8625 131.347 27.9005 131.524 26.7728C131.701 25.6452 132.063 24.6832 132.61 23.8867C133.16 23.0907 133.815 22.487 134.577 22.0756C135.333 21.663 136.181 21.4491 137.041 21.4537C137.921 21.4537 138.678 21.661 139.314 22.0756C139.949 22.4868 140.416 23.0907 140.721 23.8867C141.026 24.6827 141.084 25.6512 140.91 26.7728Z" fill="#00CF4C"/>
<path d="M103.191 9.0844C103.191 9.1839 103.178 9.28029 103.171 9.37978V9.38989C103.103 10.1915 102.985 10.988 102.817 11.7747C102.813 11.7848 102.813 11.7949 102.81 11.805C102.794 11.8781 102.781 11.9503 102.76 12.0234C102.727 12.1695 102.694 12.3157 102.658 12.4618C102.641 12.5248 102.628 12.5877 102.611 12.6507C102.569 12.8062 102.528 12.9616 102.486 13.1116C102.449 13.2282 102.416 13.3448 102.379 13.4599C102.343 13.5749 102.313 13.6791 102.277 13.7887C102.254 13.8664 102.227 13.9441 102.204 14.0172C102.181 14.0903 102.154 14.1664 102.126 14.2395C102.07 14.4152 102.007 14.5846 101.941 14.7572C101.908 14.8536 101.871 14.9492 101.831 15.0456C101.754 15.2516 101.672 15.4506 101.589 15.6496C101.589 15.6565 101.583 15.6597 101.583 15.6659C101.5 15.8586 101.417 16.0475 101.335 16.2364C101.253 16.4253 101.163 16.6181 101.073 16.8039C100.659 17.6729 100.22 18.4859 99.7882 19.2322C99.7284 19.3387 99.6687 19.4444 99.6058 19.5478C99.3637 19.9621 99.1254 20.36 98.9004 20.7347C98.798 20.9073 98.6885 21.0837 98.569 21.2656C98.4301 21.4879 98.2842 21.7133 98.1251 21.9489C97.9896 22.152 97.8473 22.3577 97.6983 22.566C97.5128 22.835 97.3103 23.1102 97.1054 23.3923C96.9502 23.6045 96.7903 23.8198 96.625 24.0359C96.4698 24.2411 96.3146 24.4471 96.1516 24.6531C95.9491 24.9151 95.7372 25.1801 95.5223 25.446C95.2439 25.7973 94.9524 26.1533 94.6477 26.514C94.4925 26.6928 94.3427 26.8754 94.1875 27.0581C93.7638 27.5556 93.324 28.0554 92.8682 28.5575C92.706 28.7363 92.5438 28.919 92.3746 29.0978C92.2974 27.756 92.3687 26.4098 92.5873 25.0837L95.0706 9.0844H103.191Z" fill="#008E35"/>
<path d="M74.4007 38.9517C74.4007 38.9517 65.3986 37.7857 65.5158 46.2716L67.1819 45.5114C67.1819 45.5114 65.6865 48.3532 66.0101 53C70.2504 51.0878 72.0438 48.424 72.0438 48.424L72.1626 50.2545C79.6816 46.3493 74.4007 38.9517 74.4007 38.9517Z" fill="url(#paint0_linear_192_121)"/>
<path d="M74.4006 38.9517C74.4006 38.9517 68.7837 38.2265 68.8582 43.5176L69.8981 43.0435C69.8981 43.0435 68.9668 44.8157 69.167 47.7143C71.8118 46.5219 72.93 44.86 72.93 44.86L73.0077 46.0019C77.6949 43.5658 74.4006 38.9517 74.4006 38.9517Z" fill="url(#paint1_linear_192_121)"/>
<path d="M80.1534 37.1639L73.1938 32.8957L74.382 30.9617L81.3415 35.2299L80.1534 37.1639Z" fill="url(#paint2_linear_192_121)"/>
<path d="M75.3685 22.8902C75.3553 22.9329 75.3459 22.9749 75.3328 23.0169C75.3311 23.0211 75.3311 23.0259 75.3328 23.0301C74.8609 24.7472 74.4737 26.2171 74.1555 27.432C73.7357 29.0511 73.4462 30.2202 73.2739 30.9439C73.2576 31.0022 73.2444 31.0574 73.2312 31.1094C73.2118 31.1872 73.1924 31.2649 73.1792 31.3349C73.1498 31.4553 73.1272 31.5564 73.1078 31.631C73.1024 31.6481 73.098 31.6655 73.0947 31.6831C73.0896 31.7093 73.0831 31.7353 73.0753 31.7608C73.074 31.7662 73.074 31.7718 73.0753 31.7771C73.0746 31.7786 73.0743 31.7802 73.0743 31.7818C73.0743 31.7834 73.0746 31.785 73.0753 31.7865V31.7935C73.0753 31.7997 73.0753 31.8067 73.0753 31.8129C70.5252 31.8261 69.2626 32.0733 67.2658 34.9999C67.22 35.0652 67.1781 35.1305 67.1323 35.1989C66.4036 36.2801 65.5127 37.6909 65.0541 37.9451C64.9563 38.0003 64.8818 38.0034 64.8298 37.9451C64.8163 37.9319 64.8052 37.9164 64.7972 37.8992C64.7351 37.7756 64.7258 37.5106 64.784 37.0652C65.2233 33.7616 66.0257 31.0869 67.1323 28.748C67.5135 27.9457 67.9381 27.1649 68.4043 26.4091C70.0339 23.7374 75.3685 22.8902 75.3685 22.8902Z" fill="url(#paint3_linear_192_121)"/>
<g style="mix-blend-mode:soft-light" opacity="0.53">
<path d="M75.3684 22.8902C70.9124 24.6399 69.5039 25.9722 67.6538 29.0838C67.4575 29.4106 67.2792 29.7479 67.1199 30.0943C65.6074 33.2867 64.7848 37.9 64.7848 37.9C64.7227 37.7764 64.7134 37.5114 64.7716 37.066C65.2108 33.7624 66.0132 31.0877 67.1199 28.7488C67.501 27.9465 67.9256 27.1657 68.3918 26.4098C70.0339 23.7374 75.3684 22.8902 75.3684 22.8902Z" fill="white"/>
</g>
<path d="M88.1536 38.532C87.8223 39.0761 87.4707 39.6039 87.0905 40.1254C85.4414 42.3928 83.2979 44.5071 80.2822 46.5771C79.85 46.8764 79.5931 46.9774 79.4697 46.9284C79.4688 46.9293 79.4675 46.9297 79.4662 46.9297C79.465 46.9297 79.4637 46.9293 79.4627 46.9284C79.4496 46.9217 79.4376 46.9131 79.427 46.9028C79.3851 46.8764 79.3688 46.815 79.3751 46.7333V46.7038C79.3736 46.6985 79.3736 46.6928 79.3751 46.6875C79.3751 46.6618 79.382 46.6292 79.3882 46.5965C79.3918 46.5881 79.3939 46.5792 79.3945 46.5701C79.4045 46.5312 79.4177 46.4924 79.434 46.4434C79.4503 46.3944 79.4666 46.3392 79.4891 46.2833C79.5116 46.2273 79.5349 46.1698 79.5605 46.1076C79.6125 45.984 79.6746 45.8534 79.746 45.7135C79.7786 45.6451 79.8143 45.5736 79.8531 45.5013C79.8919 45.429 79.9307 45.3552 79.9703 45.2798C80.0417 45.1469 80.117 45.0062 80.1946 44.8662C80.3738 44.5437 80.5624 44.2117 80.7378 43.8923C80.7611 43.8503 80.7836 43.8107 80.8061 43.7718L80.9954 43.4329C81.1506 43.1492 81.2911 42.8794 81.4114 42.6253C81.4541 42.5405 81.489 42.4558 81.5286 42.3742C81.6457 42.1169 81.7435 41.8759 81.8281 41.6443C81.8599 41.5565 81.8894 41.4717 81.9158 41.387C81.9422 41.3023 81.9678 41.2176 81.9934 41.1359C82.4327 39.5238 82.0198 38.4325 81.2096 36.8125C81.2096 36.8125 81.2197 36.8063 81.2228 36.8032C81.2259 36.8001 81.2484 36.7807 81.2717 36.7605C81.5379 36.5389 82.6686 35.5883 84.6281 33.8549C85.578 33.018 86.7229 31.9927 88.0628 30.7791C88.0791 30.7628 88.0985 30.7464 88.1179 30.7301L88.1311 30.7177C88.1311 30.7177 89.7965 35.8572 88.1536 38.532Z" fill="url(#paint4_linear_192_121)"/>
<path d="M99.6646 12.3452C99.6646 12.3553 99.6646 12.3646 99.6576 12.3748C99.6126 12.5932 99.5606 12.8077 99.5086 13.0199L99.4597 13.2057C99.4202 13.3612 99.3821 13.5081 99.3395 13.6581C99.3038 13.7724 99.2712 13.8866 99.2355 14.0001C99.1998 14.1136 99.1703 14.2154 99.1346 14.3227C99.1113 14.4004 99.0857 14.4727 99.0624 14.5473C99.0391 14.622 99.0104 14.6942 98.9848 14.7658C98.9297 14.9383 98.8676 15.1047 98.8024 15.2741C98.7698 15.3689 98.7341 15.463 98.6953 15.5578C98.6177 15.7599 98.5401 15.955 98.4579 16.1509C98.4544 16.1557 98.4522 16.1613 98.4517 16.1672C98.3702 16.3561 98.2887 16.5411 98.2072 16.7269C98.1257 16.9127 98.038 17.1016 97.9503 17.2842C97.5437 18.1393 97.1114 18.936 96.6885 19.669C96.6295 19.7732 96.5713 19.8773 96.5092 19.9799C96.2718 20.3872 96.0382 20.7782 95.817 21.1459C95.7161 21.3154 95.6082 21.4879 95.4918 21.6667C95.3545 21.8851 95.2117 22.1067 95.0557 22.3383C94.9222 22.5368 94.7823 22.7386 94.6359 22.9438C94.4535 23.2081 94.2587 23.4786 94.0538 23.7553C93.9041 23.9636 93.7434 24.1758 93.582 24.3873C93.4322 24.5894 93.2762 24.7915 93.1164 24.9936C92.9177 25.2509 92.7097 25.5113 92.4955 25.7709C92.2216 26.1168 91.936 26.465 91.6365 26.8203C91.4867 26.9959 91.3369 27.1755 91.1848 27.3543C90.7683 27.8429 90.3366 28.3339 89.8896 28.8273C89.6946 29.0449 89.4961 29.2631 89.2944 29.4818C89.286 29.4898 89.2784 29.4986 89.2719 29.5082C88.9366 29.8665 88.6021 30.2249 88.2568 30.5793C88.1924 30.6485 88.1272 30.713 88.062 30.7814C88.0486 30.7974 88.0343 30.8127 88.0193 30.8273C88.0095 30.8379 87.9988 30.8478 87.9875 30.8568C87.7268 31.1234 87.4668 31.3908 87.1998 31.6512C86.9329 31.9116 86.6698 32.1759 86.3997 32.4332C86.1297 32.6905 85.8728 32.9384 85.6066 33.1856C85.3404 33.4328 85.0502 33.694 84.77 33.9451L84.6924 34.0135C84.448 34.2288 84.2043 34.4402 83.9637 34.6485C83.7884 34.7985 83.6122 34.9455 83.4368 35.0916C83.2614 35.2377 83.1047 35.3652 82.9394 35.4958C82.7741 35.6264 82.6072 35.7632 82.4411 35.8899C82.2751 36.0166 82.1129 36.1472 81.9468 36.2715C81.7807 36.3959 81.6185 36.5187 81.4525 36.6361L81.2414 36.7916C81.2357 36.7979 81.2292 36.8034 81.222 36.8079C81.222 36.8079 81.2119 36.8141 81.2088 36.8172L80.6136 36.4495L80.5973 36.4394L77.9145 34.769L77.8555 34.7301L77.1532 34.2972L76.61 33.9645L76.3888 33.8308L74.1057 32.4464L73.647 32.1697L73.0681 31.8176C73.0681 31.8113 73.0681 31.8044 73.0681 31.7981V31.7919C73.1007 31.5797 73.1364 31.3652 73.1752 31.1468C73.1985 31.0224 73.221 30.8957 73.2435 30.769C73.2467 30.747 73.2511 30.7252 73.2567 30.7037C73.2893 30.5311 73.3219 30.3516 73.3576 30.1759C73.3933 30.0002 73.4352 29.8043 73.4717 29.6186C73.481 29.5797 73.4911 29.5369 73.4973 29.4981C73.5268 29.3716 73.556 29.2421 73.585 29.1094C73.6145 28.9788 73.6439 28.849 73.6765 28.7208C73.6765 28.7044 73.6827 28.6912 73.6858 28.6749C73.7052 28.5809 73.7285 28.486 73.7541 28.3889C73.7898 28.2334 73.8317 28.0779 73.8682 27.9225C73.8876 27.8447 73.907 27.76 73.9303 27.6815C73.9536 27.603 73.9722 27.5058 73.9986 27.418C74.0021 27.3948 74.0075 27.3719 74.0149 27.3496C74.0312 27.2843 74.0506 27.2221 74.0669 27.1576C74.0731 27.1374 74.0762 27.118 74.0832 27.0985C74.1321 26.9096 74.1841 26.7208 74.2384 26.535C74.2803 26.3756 74.3261 26.2186 74.3719 26.0593C74.489 25.652 74.6124 25.2446 74.7389 24.8373C74.8887 24.3655 75.0416 23.8898 75.1976 23.4203C75.5165 22.4689 75.858 21.5276 76.2064 20.6119C76.2747 20.4331 76.3461 20.2504 76.4144 20.0748C76.4276 20.039 76.4439 20.0033 76.4563 19.9667C76.5122 19.8237 76.5704 19.6807 76.6255 19.54C76.8793 18.908 77.1361 18.2893 77.4015 17.69C77.4923 17.4778 77.5839 17.2726 77.6747 17.0681C77.7205 16.9671 77.7655 16.866 77.8113 16.7658C78.0387 16.2605 78.2668 15.7716 78.4942 15.3029C78.54 15.208 78.5858 15.1171 78.6308 15.0254C78.8294 14.6181 79.0281 14.2279 79.2229 13.8594C79.278 13.7483 79.337 13.6441 79.3921 13.5368C79.4022 13.5205 79.4115 13.5011 79.4216 13.4847C79.4666 13.3969 79.5155 13.3122 79.5613 13.2275C79.6489 13.0673 79.7335 12.9165 79.8181 12.7611C79.9446 12.5333 80.075 12.3118 80.1984 12.1066C80.2411 12.0413 80.276 11.976 80.3187 11.9115C80.3614 11.847 80.3963 11.7809 80.4397 11.7156C80.8557 11.0479 81.3174 10.3164 81.8366 9.55934C81.9243 9.43186 82.012 9.30516 82.0997 9.17069C82.1874 9.03621 82.2821 8.91651 82.376 8.78203C82.4536 8.66855 82.542 8.55428 82.6297 8.43691C82.7174 8.31953 82.8028 8.20372 82.8936 8.09178C82.9293 8.04281 82.9712 7.99384 83.0077 7.94487C83.1016 7.82128 83.1993 7.69769 83.3002 7.5772C83.4298 7.41397 83.5633 7.25462 83.6999 7.0945C83.8109 6.96158 83.9242 6.83099 84.0413 6.7004C84.1189 6.61567 84.188 6.53406 84.2664 6.45322C84.3448 6.37238 84.403 6.29776 84.4775 6.22469C84.5264 6.1695 84.5815 6.11431 84.6327 6.05912C84.6452 6.04233 84.6595 6.02695 84.6754 6.01326C84.7856 5.89589 84.9028 5.78007 85.0199 5.66425C85.0556 5.62849 85.0975 5.58652 85.1309 5.55698C85.155 5.53221 85.1809 5.50934 85.2085 5.48858C85.2574 5.43961 85.3063 5.38753 85.3583 5.34167C85.4103 5.2958 85.4592 5.2445 85.5081 5.19864C85.6089 5.10459 85.7091 5.01286 85.8099 4.92503C85.8619 4.87606 85.9108 4.8302 85.9652 4.78511C85.9713 4.77926 85.9777 4.7738 85.9846 4.76879C86.0203 4.73925 86.0528 4.70971 86.0885 4.67707C86.2381 4.55011 86.3909 4.42315 86.5472 4.29619C86.7024 4.1656 86.8723 4.0389 87.0415 3.90753C87.1615 3.81633 87.2852 3.72512 87.4125 3.63392C87.4319 3.6176 87.4544 3.60516 87.4738 3.58884C87.5514 3.53365 87.629 3.47768 87.7066 3.4256C87.837 3.33466 87.9704 3.24682 88.107 3.15898C88.1427 3.13256 88.1846 3.11001 88.2203 3.08669C88.2723 3.05094 88.3243 3.01829 88.3755 2.98564C88.4019 2.96932 88.4314 2.94989 88.4601 2.93356C88.4888 2.91724 88.5059 2.9048 88.5323 2.89159C88.6037 2.84573 88.6751 2.79987 88.7496 2.761C88.7558 2.75579 88.7625 2.75136 88.7698 2.74779L88.7892 2.73846C88.9126 2.66073 89.0391 2.59155 89.1694 2.52004C89.2183 2.4905 89.2703 2.46174 89.3246 2.43531C89.3246 2.43531 89.3347 2.43531 89.3378 2.42909C89.3999 2.39333 89.4581 2.36069 89.5233 2.32804C89.5589 2.30748 89.5957 2.28906 89.6335 2.27285L89.7111 2.23321C89.7693 2.20056 89.8314 2.16792 89.8935 2.13838C90.0751 2.04743 90.2574 1.9596 90.446 1.87487C90.5306 1.836 90.6183 1.79714 90.7029 1.76061C90.7681 1.73185 90.8333 1.70231 90.8985 1.67588C90.9636 1.64945 91.0249 1.62069 91.0932 1.59115C96.5395 -0.650605 98.1389 0.131367 98.1389 0.131367C98.1389 0.131367 99.5637 1.20328 100.019 7.06729C100.036 7.2725 100.048 7.4816 100.058 7.6837C100.058 7.71246 100.058 7.73889 100.058 7.76842C100.12 9.30452 99.9874 10.8423 99.6646 12.3452Z" fill="url(#paint5_linear_192_121)"/>
<path d="M99.6647 12.3452C99.6647 12.3553 99.6647 12.3646 99.6577 12.3748C99.6127 12.5932 99.5607 12.8077 99.5087 13.0199L99.4598 13.2057C99.4202 13.3612 99.3822 13.5081 99.3395 13.6581C99.3038 13.7724 99.2712 13.8866 99.2355 14.0001C99.1998 14.1136 99.1703 14.2154 99.1346 14.3227C99.0888 14.4727 99.0368 14.6196 98.9848 14.7658C98.9297 14.9383 98.8677 15.1047 98.8025 15.2741C98.7699 15.3689 98.7342 15.463 98.6954 15.5578C98.6178 15.7599 98.5402 15.955 98.4579 16.1509C98.4544 16.1557 98.4522 16.1613 98.4517 16.1672C98.3702 16.3561 98.2887 16.5411 98.2072 16.7269C98.1258 16.9127 98.0381 17.1016 97.9504 17.2842C97.5437 18.1393 97.1115 18.936 96.6885 19.669C96.6296 19.7732 96.5713 19.8773 96.5093 19.9799C96.2718 20.3872 96.0382 20.7782 95.817 21.1459C95.7161 21.3154 95.6083 21.4879 95.4919 21.6667C95.3545 21.8851 95.2117 22.1067 95.0557 22.3383C94.9223 22.5368 94.7823 22.7386 94.6359 22.9438C94.4535 23.2081 94.2587 23.4786 94.0539 23.7553C93.9041 23.9636 93.7435 24.1758 93.582 24.3873C93.4323 24.5894 93.2763 24.7915 93.1164 24.9936C92.9177 25.2509 92.7098 25.5113 92.4956 25.7709C92.2216 26.1168 91.936 26.465 91.6365 26.8203C91.4867 26.9959 91.3369 27.1755 91.1848 27.3543C90.7684 27.8429 90.3366 28.3339 89.8896 28.8273C89.6946 29.0449 89.4962 29.2631 89.2944 29.4818C89.286 29.4898 89.2785 29.4986 89.2719 29.5082C88.9366 29.8665 88.6022 30.2249 88.2568 30.5793C88.1924 30.6485 88.1272 30.713 88.062 30.7814C88.0486 30.7974 88.0344 30.8127 88.0194 30.8273C88.0095 30.8379 87.9989 30.8478 87.9876 30.8568C87.7268 31.1234 87.4668 31.3908 87.1999 31.6512C86.9329 31.9116 86.6698 32.1759 86.3998 32.4332C86.1297 32.6905 85.8728 32.9384 85.6067 33.1856C85.3405 33.4328 85.0502 33.694 84.7701 33.9451L84.6925 34.0135C84.448 34.2288 84.2043 34.4402 83.9638 34.6485C83.7884 34.7985 83.6122 34.9455 83.4368 35.0916C83.2615 35.2377 83.1047 35.3652 82.9394 35.4958C82.7741 35.6264 82.6072 35.7632 82.4412 35.8899C82.2751 36.0166 82.1129 36.1472 81.9468 36.2715C81.7808 36.3959 81.6186 36.5187 81.4525 36.6361L81.2414 36.7916C81.2358 36.7979 81.2292 36.8034 81.222 36.8079C81.222 36.8079 81.2119 36.8141 81.2088 36.8172L80.6136 36.4495L80.5973 36.4394L77.9145 34.769L77.8555 34.7301L77.1532 34.2972L76.61 33.9645L76.3888 33.8308L74.1057 32.4464L74.9547 31.3061L76.6729 28.9804L81.6985 22.2232L81.7373 22.1743L81.8087 22.0732L82.5848 21.0277L82.7151 20.8583L87.4963 14.4268L87.6624 14.2022L88.485 13.1015V13.0976L88.5471 13.0199L90.5764 10.29L90.8954 9.86249L91.361 9.23054L91.839 8.58926L92.3691 7.87569L98.1296 0.131367C98.1296 0.131367 99.5544 1.20327 100.01 7.06729C100.026 7.2725 100.039 7.48159 100.049 7.6837C100.049 7.71246 100.049 7.73888 100.049 7.76842C100.113 9.30413 99.9843 10.8419 99.6647 12.3452Z" fill="url(#paint6_linear_192_121)"/>
<g style="mix-blend-mode:soft-light" opacity="0.09">
<path d="M73.6409 32.1681L80.6167 36.4457" stroke="black" stroke-width="3.41" stroke-miterlimit="10"/>
</g>
<path d="M73.0627 31.8176L77.1509 34.2956L81.2143 36.8164C82.4499 35.9223 83.6378 34.9638 84.7732 33.9451L74.0134 27.3465C73.6179 28.819 73.3006 30.3114 73.0627 31.8176Z" fill="url(#paint7_linear_192_121)"/>
<path style="mix-blend-mode:soft-light" d="M81.4672 27.7639L81.2142 36.8164L80.4731 36.5444L80.1534 37.1639L77.4504 35.5067L81.4672 27.7639Z" fill="url(#paint8_linear_192_121)"/>
<g style="mix-blend-mode:soft-light">
<path d="M86.5503 4.3024L99.6638 12.3444" stroke="black" stroke-width="3.41" stroke-miterlimit="10"/>
</g>
<path d="M99.6647 12.3452L97.9667 11.3028L92.3792 7.87569L87.8681 5.11003L86.5488 4.30163C86.704 4.17104 86.874 4.04434 87.0432 3.91297C87.1829 3.8057 87.3295 3.70154 87.4754 3.59428C87.889 3.30123 88.3182 3.02062 88.7737 2.75323C88.9033 2.6755 89.0368 2.59777 89.1734 2.52548C89.2223 2.49594 89.2743 2.46718 89.3286 2.44075C89.4559 2.36924 89.5855 2.30083 89.7166 2.23554C89.7748 2.20289 89.8369 2.17025 89.899 2.14071C90.0806 2.04976 90.263 1.96193 90.4515 1.8772C90.6626 1.77926 90.8776 1.68521 91.0988 1.59348C96.5396 -0.650606 98.139 0.131366 98.139 0.131366C98.139 0.131366 99.5638 1.20327 100.019 7.06729C100.036 7.30048 100.052 7.53367 100.061 7.76687C100.122 9.30361 99.9886 10.8419 99.6647 12.3452Z" fill="url(#paint9_linear_192_121)"/>
<path d="M99.463 13.2057C99.4203 13.3612 99.3815 13.5081 99.3396 13.6581C99.3039 13.7724 99.2713 13.8866 99.2356 14.0001L97.5284 12.9647L91.3712 9.23365L86.5287 6.2962L85.2095 5.4948C85.3073 5.39686 85.4081 5.3028 85.5121 5.20797C85.6161 5.11314 85.7131 5.02219 85.814 4.93436L87.141 5.73887L91.847 8.59315L97.7449 12.1734L99.456 13.2096L99.463 13.2057Z" fill="url(#paint10_linear_192_121)"/>
<path d="M98.985 14.7689C98.9299 14.9414 98.8678 15.1078 98.8026 15.2772L97.1248 14.2605L90.5835 10.2962L85.5649 7.25307L84.2673 6.46488C84.3356 6.38715 84.4039 6.30942 84.4784 6.23635C84.5273 6.18116 84.5824 6.12597 84.6336 6.07078L85.9444 6.86519L90.8986 9.86871L97.2893 13.7459L98.985 14.7689Z" fill="url(#paint11_linear_192_121)"/>
<g style="mix-blend-mode:soft-light" opacity="0.09">
<path d="M74.0127 27.3465L84.7733 33.9451" stroke="black" stroke-width="3.41" stroke-miterlimit="10"/>
</g>
<path d="M81.3485 27.4631C81.3485 27.4631 80.6842 26.8218 77.0865 32.678C73.4887 38.5343 70.5367 44.0267 70.9984 44.3112C71.4602 44.5957 75.0261 39.4779 78.6238 33.6217C82.2215 27.7655 81.3485 27.4631 81.3485 27.4631Z" fill="url(#paint12_linear_192_121)"/>
<g style="mix-blend-mode:soft-light">
<path d="M81.3485 27.4631C81.3485 27.4631 80.6842 26.8218 77.0865 32.678C73.4887 38.5343 70.5367 44.0267 70.9984 44.3112C70.9984 44.3112 71.8707 42.1052 74.5224 37.502C77.1742 32.8988 80.2613 27.823 81.3485 27.4631Z" fill="white"/>
</g>
<path style="mix-blend-mode:soft-light" d="M87.2815 24.8646C90.5925 24.5453 93.0182 21.5979 92.6994 18.2815C92.3805 14.9651 89.438 12.5355 86.127 12.8548C82.8159 13.1741 80.3903 16.1215 80.7091 19.4379C81.0279 22.7543 83.9705 25.184 87.2815 24.8646Z" fill="url(#paint13_linear_192_121)"/>
<path d="M88.0049 24.5333C91.2225 23.7661 93.2099 20.5316 92.444 17.3088C91.678 14.0859 88.4488 12.0953 85.2312 12.8624C82.0136 13.6296 80.0262 16.8642 80.7921 20.087C81.5581 23.3098 84.7873 25.3005 88.0049 24.5333Z" fill="#D4D4D4"/>
<path d="M88.0775 24.5146C91.2557 23.7562 93.2184 20.5608 92.4612 17.3773C91.704 14.1939 88.5138 12.228 85.3355 12.9864C82.1573 13.7448 80.1946 16.9403 80.9518 20.1237C81.7089 23.3072 84.8992 25.273 88.0775 24.5146Z" fill="url(#paint14_linear_192_121)"/>
<path d="M87.669 23.2078C90.1511 22.6087 91.6783 20.1075 91.0801 17.6214C90.4819 15.1353 87.9848 13.6056 85.5027 14.2047C83.0207 14.8039 81.4935 17.305 82.0917 19.7912C82.6898 22.2773 85.1869 23.807 87.669 23.2078Z" fill="#76C9F0"/>
<path d="M87.6743 23.0994C90.056 22.5267 91.5232 20.1284 90.9514 17.7428C90.3796 15.3572 87.9853 13.8875 85.6036 14.4602C83.2218 15.033 81.7546 17.4312 82.3264 19.8169C82.8982 22.2025 85.2925 23.6721 87.6743 23.0994Z" fill="url(#paint15_linear_192_121)"/>
<mask id="mask0_192_121" style="mask-type:luminance" maskUnits="userSpaceOnUse" x="82" y="14" width="10" height="10">
<path d="M87.6743 23.0994C90.056 22.5267 91.5232 20.1284 90.9514 17.7428C90.3796 15.3572 87.9853 13.8875 85.6036 14.4602C83.2218 15.033 81.7546 17.4312 82.3264 19.8169C82.8982 22.2025 85.2925 23.6721 87.6743 23.0994Z" fill="white"/>
</mask>
<g mask="url(#mask0_192_121)">
<path d="M89.8117 14.419L81.2341 20.905L82.2852 22.2997L90.8628 15.8136L89.8117 14.419Z" fill="url(#paint16_linear_192_121)"/>
<path d="M91.3318 16.6014L82.7542 23.0874L83.283 23.7891L91.8606 17.3031L91.3318 16.6014Z" fill="url(#paint17_linear_192_121)"/>
</g>
<path d="M82.1829 16.311C82.1818 16.2609 82.1659 16.2122 82.1372 16.1712C82.1085 16.1301 82.0682 16.0985 82.0215 16.0803C81.9749 16.0622 81.9239 16.0583 81.875 16.0692C81.8261 16.0801 81.7816 16.1053 81.747 16.1416C81.7124 16.1778 81.6894 16.2235 81.6808 16.2729C81.6722 16.3223 81.6784 16.3732 81.6986 16.419C81.7189 16.4649 81.7522 16.5037 81.7945 16.5306C81.8368 16.5574 81.8861 16.5711 81.9361 16.5699C82.0031 16.5683 82.0667 16.5401 82.113 16.4916C82.1592 16.443 82.1844 16.3781 82.1829 16.311Z" fill="#A3A3A3"/>
<path d="M81.6395 17.861C81.6384 17.8109 81.6225 17.7622 81.5937 17.7211C81.565 17.68 81.5248 17.6484 81.4781 17.6303C81.4314 17.6121 81.3804 17.6083 81.3316 17.6192C81.2827 17.6301 81.2381 17.6552 81.2036 17.6915C81.169 17.7278 81.1459 17.7735 81.1373 17.8229C81.1287 17.8723 81.1349 17.9231 81.1552 17.969C81.1754 18.0149 81.2088 18.0537 81.2511 18.0805C81.2933 18.1074 81.3426 18.1211 81.3927 18.1198C81.4596 18.1182 81.5232 18.09 81.5695 18.0415C81.6158 17.993 81.6409 17.9281 81.6395 17.861Z" fill="#A3A3A3"/>
<path d="M82.9302 15.1521C82.9291 15.1019 82.9132 15.0533 82.8845 15.0122C82.8558 14.9711 82.8155 14.9395 82.7689 14.9214C82.7222 14.9032 82.6712 14.8993 82.6223 14.9102C82.5735 14.9211 82.5289 14.9463 82.4943 14.9826C82.4598 15.0189 82.4367 15.0646 82.4281 15.114C82.4195 15.1634 82.4257 15.2142 82.4459 15.2601C82.4662 15.3059 82.4996 15.3448 82.5418 15.3716C82.5841 15.3985 82.6334 15.4121 82.6835 15.4109C82.7166 15.4102 82.7494 15.403 82.7798 15.3896C82.8101 15.3761 82.8376 15.3569 82.8605 15.3328C82.8834 15.3088 82.9014 15.2804 82.9134 15.2494C82.9253 15.2184 82.9311 15.1853 82.9302 15.1521Z" fill="#A3A3A3"/>
<path d="M82.1052 20.8319C82.0653 20.8016 82.0173 20.7839 81.9673 20.781C81.9173 20.7781 81.8676 20.7902 81.8245 20.8156C81.7813 20.841 81.7467 20.8787 81.7249 20.9238C81.7031 20.969 81.6952 21.0196 81.7022 21.0692C81.7091 21.1189 81.7306 21.1654 81.764 21.2028C81.7973 21.2402 81.841 21.2669 81.8895 21.2794C81.9379 21.2919 81.989 21.2898 82.0363 21.2732C82.0835 21.2566 82.1248 21.2264 82.1549 21.1863C82.1749 21.1598 82.1895 21.1296 82.1979 21.0974C82.2062 21.0652 82.2082 21.0317 82.2035 20.9988C82.1989 20.9658 82.1879 20.9341 82.171 20.9055C82.1541 20.8769 82.1318 20.8518 82.1052 20.8319Z" fill="#A3A3A3"/>
<path d="M82.9851 22.2194C82.9452 22.1891 82.8972 22.1714 82.8472 22.1685C82.7972 22.1656 82.7475 22.1777 82.7044 22.2031C82.6612 22.2285 82.6265 22.2662 82.6048 22.3113C82.583 22.3565 82.5751 22.4071 82.582 22.4567C82.589 22.5064 82.6105 22.5529 82.6439 22.5903C82.6772 22.6277 82.7209 22.6543 82.7693 22.6669C82.8178 22.6794 82.8689 22.6773 82.9162 22.6607C82.9634 22.6441 83.0047 22.6139 83.0348 22.5738C83.0548 22.5473 83.0694 22.5171 83.0778 22.4849C83.0861 22.4527 83.0881 22.4192 83.0834 22.3863C83.0788 22.3533 83.0678 22.3216 83.0509 22.293C83.034 22.2644 83.0117 22.2393 82.9851 22.2194Z" fill="#A3A3A3"/>
<path d="M81.6397 19.2773C81.5997 19.247 81.5517 19.2293 81.5017 19.2264C81.4518 19.2235 81.402 19.2356 81.3589 19.261C81.3157 19.2864 81.2811 19.3241 81.2593 19.3692C81.2375 19.4144 81.2296 19.465 81.2366 19.5146C81.2435 19.5643 81.2651 19.6108 81.2984 19.6482C81.3317 19.6856 81.3754 19.7122 81.4239 19.7248C81.4724 19.7373 81.5235 19.7352 81.5707 19.7186C81.618 19.702 81.6592 19.6718 81.6893 19.6317C81.7296 19.5781 81.747 19.5106 81.7377 19.4442C81.7283 19.3777 81.6931 19.3177 81.6397 19.2773Z" fill="#A3A3A3"/>
<path d="M85.5104 23.7336C85.4621 23.7467 85.4188 23.7738 85.3859 23.8115C85.353 23.8493 85.332 23.8959 85.3256 23.9456C85.3192 23.9953 85.3276 24.0458 85.3498 24.0907C85.372 24.1356 85.407 24.1729 85.4504 24.1978C85.4937 24.2228 85.5435 24.2343 85.5934 24.231C85.6433 24.2276 85.6911 24.2095 85.7308 24.179C85.7704 24.1484 85.8001 24.1068 85.8161 24.0593C85.8322 24.0119 85.8338 23.9607 85.8208 23.9123C85.8032 23.8475 85.7606 23.7923 85.7024 23.7588C85.6442 23.7253 85.5752 23.7162 85.5104 23.7336Z" fill="#A3A3A3"/>
<path d="M87.1409 23.8906C87.0929 23.9038 87.0498 23.931 87.0172 23.9687C86.9846 24.0064 86.9638 24.0529 86.9576 24.1025C86.9513 24.152 86.9598 24.2022 86.9821 24.2469C87.0043 24.2915 87.0392 24.3286 87.0825 24.3534C87.1257 24.3782 87.1753 24.3896 87.225 24.3862C87.2747 24.3828 87.3223 24.3647 87.3618 24.3342C87.4012 24.3038 87.4308 24.2623 87.4467 24.215C87.4627 24.1677 87.4643 24.1168 87.4513 24.0686C87.4427 24.0364 87.4278 24.0063 87.4075 23.9799C87.3872 23.9536 87.3619 23.9315 87.3331 23.9149C87.3042 23.8984 87.2724 23.8877 87.2394 23.8835C87.2065 23.8794 87.173 23.8817 87.1409 23.8906Z" fill="#A3A3A3"/>
<path d="M83.9972 23.1482C83.9489 23.1613 83.9056 23.1885 83.8727 23.2262C83.8398 23.264 83.8188 23.3106 83.8124 23.3603C83.806 23.41 83.8144 23.4605 83.8366 23.5054C83.8588 23.5503 83.8938 23.5875 83.9372 23.6125C83.9805 23.6375 84.0303 23.649 84.0802 23.6457C84.1301 23.6423 84.1779 23.6242 84.2176 23.5937C84.2572 23.5631 84.2869 23.5215 84.3029 23.474C84.319 23.4266 84.3206 23.3754 84.3076 23.327C84.299 23.2949 84.2841 23.2647 84.2638 23.2383C84.2435 23.2119 84.2182 23.1898 84.1894 23.1732C84.1606 23.1566 84.1288 23.1458 84.0958 23.1415C84.0628 23.1373 84.0293 23.1395 83.9972 23.1482Z" fill="#A3A3A3"/>
<path d="M89.9107 22.7891C89.891 22.835 89.8853 22.8857 89.8943 22.9349C89.9034 22.984 89.9268 23.0294 89.9616 23.0652C89.9963 23.101 90.041 23.1257 90.0897 23.1361C90.1385 23.1465 90.1893 23.1422 90.2356 23.1237C90.282 23.1053 90.3218 23.0734 90.3501 23.0323C90.3784 22.9911 90.3939 22.9425 90.3945 22.8925C90.3952 22.8426 90.3811 22.7935 90.354 22.7516C90.3268 22.7097 90.2879 22.6767 90.2421 22.657C90.1806 22.6307 90.1113 22.6299 90.0492 22.6546C89.9871 22.6794 89.9373 22.7277 89.9107 22.7891Z" fill="#A3A3A3"/>
<path d="M90.9706 21.6348C90.951 21.6807 90.9453 21.7314 90.9544 21.7805C90.9635 21.8296 90.9869 21.8748 91.0217 21.9106C91.0564 21.9464 91.101 21.9711 91.1497 21.9815C91.1985 21.9919 91.2492 21.9877 91.2955 21.9692C91.3418 21.9508 91.3817 21.919 91.41 21.878C91.4383 21.8369 91.4538 21.7883 91.4546 21.7384C91.4554 21.6885 91.4414 21.6394 91.4143 21.5975C91.3873 21.5555 91.3485 21.5226 91.3028 21.5027C91.2412 21.4762 91.1717 21.4752 91.1094 21.5C91.0472 21.5247 90.9972 21.5732 90.9706 21.6348Z" fill="#A3A3A3"/>
<path d="M88.5192 23.5587C88.4993 23.6047 88.4934 23.6556 88.5024 23.705C88.5114 23.7544 88.5348 23.8 88.5697 23.836C88.6045 23.872 88.6493 23.8969 88.6983 23.9074C88.7473 23.9179 88.7983 23.9136 88.8449 23.895C88.8914 23.8764 88.9314 23.8445 88.9598 23.8031C88.9882 23.7617 89.0036 23.7129 89.0042 23.6627C89.0049 23.6125 88.9906 23.5633 88.9632 23.5212C88.9359 23.4792 88.8967 23.4462 88.8506 23.4265C88.7891 23.4002 88.7198 23.3994 88.6577 23.4242C88.5956 23.4489 88.5458 23.4973 88.5192 23.5587Z" fill="#A3A3A3"/>
<path d="M91.7017 18.8629C91.7245 18.9074 91.76 18.944 91.8036 18.9682C91.8472 18.9925 91.8969 19.0033 91.9466 18.9992C91.9963 18.9951 92.0437 18.9763 92.0828 18.9453C92.1218 18.9143 92.1508 18.8723 92.1661 18.8248C92.1814 18.7773 92.1822 18.7263 92.1686 18.6782C92.1549 18.6302 92.1274 18.5873 92.0894 18.5549C92.0514 18.5226 92.0047 18.5022 91.9552 18.4965C91.9057 18.4907 91.8555 18.4997 91.8112 18.5225C91.7517 18.5532 91.7067 18.6063 91.6862 18.6701C91.6657 18.7339 91.6713 18.8032 91.7017 18.8629Z" fill="#A3A3A3"/>
<path d="M91.524 17.3612C91.5468 17.4056 91.5823 17.4422 91.6258 17.4665C91.6694 17.4907 91.7192 17.5015 91.7689 17.4974C91.8186 17.4933 91.866 17.4746 91.905 17.4436C91.9441 17.4125 91.9731 17.3706 91.9884 17.323C92.0037 17.2755 92.0045 17.2245 91.9909 17.1765C91.9772 17.1284 91.9497 17.0855 91.9117 17.0532C91.8737 17.0208 91.827 17.0005 91.7775 16.9947C91.728 16.9889 91.6778 16.998 91.6334 17.0207C91.6039 17.0359 91.5777 17.0567 91.5562 17.082C91.5347 17.1073 91.5184 17.1366 91.5082 17.1682C91.4981 17.1998 91.4942 17.2332 91.4969 17.2663C91.4996 17.2994 91.5089 17.3316 91.524 17.3612Z" fill="#A3A3A3"/>
<path d="M91.5443 20.4432C91.5671 20.4876 91.6025 20.5243 91.6461 20.5485C91.6897 20.5728 91.7395 20.5835 91.7892 20.5794C91.8389 20.5754 91.8862 20.5566 91.9253 20.5256C91.9644 20.4945 91.9934 20.4526 92.0087 20.4051C92.0239 20.3575 92.0248 20.3065 92.0111 20.2585C91.9975 20.2105 91.9699 20.1676 91.932 20.1352C91.894 20.1029 91.8473 20.0825 91.7977 20.0767C91.7482 20.071 91.6981 20.08 91.6537 20.1028C91.6242 20.1179 91.5979 20.1387 91.5764 20.164C91.5549 20.1893 91.5386 20.2186 91.5285 20.2502C91.5183 20.2819 91.5145 20.3152 91.5172 20.3483C91.5199 20.3814 91.5291 20.4137 91.5443 20.4432Z" fill="#A3A3A3"/>
<path d="M90.0442 14.8629C90.0931 14.8723 90.1438 14.8669 90.1897 14.8475C90.2357 14.8281 90.2748 14.7954 90.3022 14.7537C90.3296 14.712 90.3441 14.6631 90.3438 14.6132C90.3435 14.5632 90.3284 14.5145 90.3004 14.4731C90.2725 14.4318 90.2329 14.3997 90.1867 14.3808C90.1405 14.362 90.0898 14.3573 90.041 14.3673C89.9921 14.3773 89.9473 14.4016 89.9123 14.4371C89.8772 14.4726 89.8534 14.5177 89.844 14.5668C89.8376 14.5994 89.8378 14.6329 89.8445 14.6655C89.8511 14.698 89.8641 14.7289 89.8827 14.7564C89.9013 14.7839 89.9252 14.8075 89.9529 14.8258C89.9806 14.8441 90.0116 14.8567 90.0442 14.8629Z" fill="#A3A3A3"/>
<path d="M88.6675 14.0133C88.7165 14.0225 88.7671 14.017 88.8129 13.9975C88.8588 13.9779 88.8978 13.9452 88.9251 13.9035C88.9524 13.8617 88.9668 13.8128 88.9663 13.7629C88.9659 13.713 88.9507 13.6643 88.9227 13.623C88.8947 13.5817 88.8551 13.5497 88.8089 13.5309C88.7627 13.5122 88.7121 13.5075 88.6632 13.5176C88.6144 13.5277 88.5697 13.552 88.5347 13.5875C88.4997 13.623 88.4759 13.6682 88.4665 13.7172C88.4602 13.7498 88.4604 13.7834 88.4671 13.816C88.4738 13.8486 88.4869 13.8796 88.5055 13.9071C88.5242 13.9346 88.5481 13.9581 88.5759 13.9764C88.6037 13.9946 88.6348 14.0072 88.6675 14.0133Z" fill="#A3A3A3"/>
<path d="M91.0188 16.0825C91.0679 16.0921 91.1188 16.0868 91.165 16.0674C91.2112 16.048 91.2506 16.0153 91.2782 15.9735C91.3058 15.9316 91.3204 15.8825 91.3201 15.8323C91.3198 15.7822 91.3046 15.7332 91.2766 15.6917C91.2485 15.6502 91.2087 15.6179 91.1623 15.599C91.1159 15.5801 91.065 15.5755 91.016 15.5856C90.9669 15.5957 90.922 15.6202 90.8868 15.656C90.8517 15.6917 90.8279 15.7371 90.8186 15.7864C90.8123 15.819 90.8124 15.8525 90.8191 15.8851C90.8257 15.9176 90.8387 15.9485 90.8573 15.976C90.8759 16.0035 90.8998 16.0271 90.9275 16.0454C90.9552 16.0637 90.9862 16.0763 91.0188 16.0825Z" fill="#A3A3A3"/>
<path d="M85.6566 13.5947C85.6616 13.4553 85.5528 13.3382 85.4136 13.3333C85.2744 13.3283 85.1575 13.4373 85.1525 13.5767C85.1476 13.7162 85.2564 13.8332 85.3956 13.8382C85.5348 13.8432 85.6517 13.7342 85.6566 13.5947Z" fill="#A3A3A3"/>
<path d="M84.109 14.4035C84.147 14.3708 84.1744 14.3276 84.1879 14.2793C84.2013 14.231 84.2001 14.1797 84.1845 14.1321C84.1688 14.0845 84.1394 14.0425 84.0999 14.0117C84.0605 13.9808 84.0128 13.9623 83.9628 13.9586C83.9129 13.9549 83.863 13.9661 83.8194 13.9909C83.7759 14.0156 83.7406 14.0527 83.7181 14.0975C83.6956 14.1423 83.6869 14.1928 83.6931 14.2426C83.6993 14.2924 83.7201 14.3392 83.7528 14.3771C83.7744 14.4023 83.8008 14.423 83.8304 14.438C83.8601 14.4529 83.8924 14.4619 83.9254 14.4644C83.9585 14.4668 83.9918 14.4627 84.0233 14.4523C84.0548 14.4418 84.0839 14.4253 84.109 14.4035Z" fill="#A3A3A3"/>
<path d="M87.2966 13.482C87.3217 13.3448 87.2311 13.2131 87.0941 13.1879C86.9571 13.1627 86.8256 13.2535 86.8005 13.3907C86.7753 13.528 86.8659 13.6596 87.0029 13.6849C87.1399 13.7101 87.2714 13.6193 87.2966 13.482Z" fill="#A3A3A3"/>
<path d="M82.1152 16.2714C82.1139 16.2215 82.0979 16.173 82.0692 16.1322C82.0405 16.0913 82.0003 16.0599 81.9538 16.042C81.9072 16.024 81.8564 16.0203 81.8078 16.0312C81.7591 16.0422 81.7148 16.0673 81.6804 16.1035C81.646 16.1397 81.6231 16.1853 81.6146 16.2345C81.606 16.2837 81.6123 16.3344 81.6325 16.38C81.6527 16.4257 81.686 16.4644 81.7281 16.4911C81.7702 16.5178 81.8193 16.5315 81.8692 16.5302C81.9023 16.5294 81.9349 16.5221 81.9652 16.5087C81.9955 16.4952 82.0229 16.4759 82.0457 16.4519C82.0686 16.4278 82.0865 16.3995 82.0984 16.3686C82.1103 16.3376 82.116 16.3046 82.1152 16.2714Z" fill="#D4D4D4"/>
<path d="M81.5766 17.8214C81.5754 17.7714 81.5594 17.723 81.5306 17.6821C81.5019 17.6413 81.4617 17.6099 81.4152 17.5919C81.3687 17.574 81.3178 17.5702 81.2692 17.5812C81.2205 17.5921 81.1762 17.6173 81.1418 17.6535C81.1074 17.6896 81.0845 17.7352 81.076 17.7845C81.0675 17.8337 81.0737 17.8843 81.0939 17.93C81.1141 17.9757 81.1474 18.0143 81.1895 18.0411C81.2316 18.0678 81.2807 18.0814 81.3306 18.0802C81.3637 18.0794 81.3964 18.0721 81.4267 18.0586C81.457 18.0452 81.4843 18.0259 81.5072 18.0018C81.53 17.9778 81.5479 17.9495 81.5598 17.9185C81.5717 17.8875 81.5774 17.8545 81.5766 17.8214Z" fill="#D4D4D4"/>
<path d="M82.8665 15.1124C82.8654 15.0623 82.8495 15.0136 82.8208 14.9725C82.7921 14.9315 82.7518 14.8999 82.7051 14.8817C82.6585 14.8636 82.6075 14.8597 82.5586 14.8706C82.5097 14.8815 82.4652 14.9067 82.4306 14.9429C82.396 14.9792 82.373 15.0249 82.3644 15.0743C82.3558 15.1237 82.362 15.1746 82.3822 15.2204C82.4025 15.2663 82.4358 15.3051 82.4781 15.332C82.5204 15.3588 82.5697 15.3725 82.6197 15.3713C82.6866 15.3694 82.7501 15.3412 82.7963 15.2927C82.8425 15.2443 82.8678 15.1795 82.8665 15.1124Z" fill="#D4D4D4"/>
<path d="M82.0416 20.7953C82.0017 20.7655 81.9538 20.7481 81.904 20.7454C81.8543 20.7428 81.8048 20.755 81.762 20.7804C81.7191 20.8059 81.6847 20.8435 81.6632 20.8885C81.6417 20.9335 81.6339 20.9839 81.641 21.0334C81.648 21.0828 81.6695 21.129 81.7027 21.1662C81.736 21.2034 81.7794 21.2299 81.8277 21.2423C81.876 21.2548 81.9268 21.2527 81.9739 21.2362C82.0209 21.2197 82.062 21.1896 82.092 21.1498C82.1121 21.1233 82.1268 21.093 82.1351 21.0608C82.1435 21.0285 82.1453 20.995 82.1407 20.962C82.136 20.9291 82.1248 20.8973 82.1078 20.8687C82.0908 20.8401 82.0683 20.8152 82.0416 20.7953Z" fill="#D4D4D4"/>
<path d="M82.9216 22.1797C82.8817 22.1495 82.8337 22.1318 82.7837 22.1289C82.7337 22.126 82.684 22.138 82.6409 22.1634C82.5977 22.1889 82.5631 22.2265 82.5413 22.2717C82.5195 22.3168 82.5116 22.3674 82.5186 22.4171C82.5255 22.4668 82.547 22.5132 82.5804 22.5506C82.6137 22.588 82.6574 22.6147 82.7059 22.6272C82.7543 22.6398 82.8054 22.6376 82.8527 22.6211C82.8999 22.6045 82.9412 22.5742 82.9713 22.5342C82.9913 22.5077 83.006 22.4774 83.0143 22.4452C83.0226 22.4131 83.0246 22.3795 83.02 22.3466C83.0153 22.3137 83.0043 22.282 82.9874 22.2533C82.9705 22.2247 82.9482 22.1997 82.9216 22.1797Z" fill="#D4D4D4"/>
<path d="M81.572 19.2399C81.5321 19.2097 81.4841 19.192 81.4341 19.1891C81.3841 19.1862 81.3344 19.1982 81.2913 19.2237C81.2481 19.2491 81.2135 19.2867 81.1917 19.3319C81.1699 19.3771 81.162 19.4277 81.169 19.4773C81.1759 19.527 81.1974 19.5735 81.2308 19.6109C81.2641 19.6483 81.3078 19.6749 81.3563 19.6875C81.4047 19.7 81.4558 19.6978 81.5031 19.6813C81.5503 19.6647 81.5916 19.6345 81.6217 19.5944C81.662 19.5408 81.6793 19.4733 81.67 19.4069C81.6607 19.3404 81.6255 19.2804 81.572 19.2399Z" fill="#D4D4D4"/>
<path d="M85.4469 23.6939C85.3986 23.707 85.3553 23.7341 85.3224 23.7719C85.2895 23.8096 85.2685 23.8563 85.2621 23.906C85.2557 23.9557 85.2641 24.0062 85.2863 24.051C85.3085 24.0959 85.3435 24.1332 85.3869 24.1582C85.4303 24.1832 85.48 24.1947 85.5299 24.1914C85.5798 24.188 85.6276 24.1699 85.6673 24.1393C85.7069 24.1088 85.7366 24.0672 85.7527 24.0197C85.7687 23.9722 85.7703 23.9211 85.7573 23.8727C85.7488 23.8405 85.7339 23.8103 85.7137 23.7838C85.6934 23.7574 85.6681 23.7352 85.6393 23.7186C85.6104 23.7019 85.5786 23.6912 85.5455 23.687C85.5125 23.6827 85.479 23.6851 85.4469 23.6939Z" fill="#D4D4D4"/>
<path d="M87.0772 23.8509C87.0292 23.8642 86.9861 23.8913 86.9535 23.9291C86.9209 23.9668 86.9001 24.0133 86.8938 24.0628C86.8876 24.1123 86.8961 24.1626 86.9183 24.2072C86.9406 24.2519 86.9755 24.289 87.0187 24.3138C87.062 24.3386 87.1116 24.35 87.1613 24.3466C87.211 24.3431 87.2586 24.3251 87.298 24.2946C87.3375 24.2641 87.3671 24.2226 87.383 24.1754C87.3989 24.1281 87.4006 24.0771 87.3876 24.0289C87.37 23.9641 87.3274 23.9089 87.2692 23.8756C87.211 23.8422 87.1419 23.8333 87.0772 23.8509Z" fill="#D4D4D4"/>
<path d="M83.9335 23.1086C83.8852 23.1217 83.8419 23.1488 83.809 23.1866C83.7761 23.2243 83.7551 23.271 83.7487 23.3207C83.7423 23.3704 83.7507 23.4208 83.7729 23.4657C83.7951 23.5106 83.8301 23.5479 83.8735 23.5729C83.9168 23.5979 83.9666 23.6094 84.0165 23.606C84.0664 23.6027 84.1142 23.5846 84.1539 23.554C84.1935 23.5235 84.2232 23.4818 84.2392 23.4344C84.2553 23.3869 84.2569 23.3358 84.2439 23.2874C84.2352 23.2552 84.2204 23.2251 84.2001 23.1987C84.1798 23.1723 84.1545 23.1501 84.1257 23.1335C84.0968 23.1169 84.065 23.1062 84.032 23.1019C83.9991 23.0976 83.9656 23.0999 83.9335 23.1086Z" fill="#D4D4D4"/>
<path d="M89.8461 22.7495C89.8258 22.7953 89.8196 22.8461 89.8282 22.8954C89.8369 22.9448 89.8599 22.9905 89.8945 23.0267C89.9291 23.0628 89.9737 23.0879 90.0226 23.0987C90.0714 23.1094 90.1224 23.1054 90.1689 23.087C90.2155 23.0687 90.2555 23.0369 90.284 22.9957C90.3125 22.9546 90.3281 22.9058 90.3289 22.8557C90.3296 22.8056 90.3155 22.7564 90.2882 22.7144C90.261 22.6724 90.2219 22.6394 90.1759 22.6197C90.1149 22.5937 90.0462 22.5928 89.9846 22.6171C89.9229 22.6414 89.8732 22.6889 89.8461 22.7495Z" fill="#D4D4D4"/>
<path d="M90.9072 21.5952C90.8872 21.6412 90.8813 21.6922 90.8903 21.7415C90.8993 21.7909 90.9227 21.8365 90.9576 21.8725C90.9925 21.9085 91.0373 21.9334 91.0863 21.9439C91.1352 21.9544 91.1862 21.9501 91.2328 21.9315C91.2793 21.913 91.3193 21.881 91.3477 21.8396C91.3761 21.7983 91.3916 21.7494 91.3922 21.6992C91.3928 21.649 91.3785 21.5998 91.3512 21.5577C91.3238 21.5157 91.2846 21.4827 91.2385 21.463C91.1771 21.4368 91.1077 21.4359 91.0456 21.4607C90.9836 21.4854 90.9338 21.5338 90.9072 21.5952Z" fill="#D4D4D4"/>
<path d="M88.4549 23.519C88.435 23.565 88.4292 23.6159 88.4382 23.6653C88.4472 23.7146 88.4706 23.7601 88.5055 23.7961C88.5403 23.8321 88.5851 23.8569 88.634 23.8674C88.683 23.8779 88.7339 23.8737 88.7805 23.8552C88.827 23.8367 88.867 23.8047 88.8954 23.7634C88.9238 23.7222 88.9393 23.6734 88.94 23.6232C88.9407 23.5731 88.9266 23.5239 88.8993 23.4818C88.8721 23.4397 88.833 23.4067 88.787 23.3869C88.7255 23.3604 88.656 23.3594 88.5937 23.3842C88.5314 23.4089 88.4815 23.4574 88.4549 23.519Z" fill="#D4D4D4"/>
<path d="M91.6374 18.8233C91.6601 18.868 91.6955 18.9049 91.7392 18.9295C91.7828 18.954 91.8328 18.965 91.8827 18.961C91.9326 18.9571 91.9802 18.9384 92.0195 18.9074C92.0589 18.8763 92.0881 18.8343 92.1035 18.7866C92.1189 18.7389 92.1199 18.6876 92.1063 18.6394C92.0926 18.5911 92.065 18.548 92.0269 18.5155C91.9888 18.483 91.9419 18.4625 91.8922 18.4567C91.8425 18.4509 91.7921 18.46 91.7476 18.4828C91.6879 18.5134 91.6429 18.5664 91.6222 18.6303C91.6015 18.6941 91.607 18.7635 91.6374 18.8233Z" fill="#D4D4D4"/>
<path d="M91.4603 17.3215C91.4831 17.366 91.5185 17.4026 91.5621 17.4268C91.6057 17.4511 91.6555 17.4618 91.7052 17.4578C91.7549 17.4537 91.8023 17.4349 91.8413 17.4039C91.8804 17.3729 91.9094 17.3309 91.9247 17.2834C91.9399 17.2359 91.9408 17.1849 91.9272 17.1368C91.9135 17.0888 91.886 17.0459 91.848 17.0135C91.81 16.9812 91.7633 16.9608 91.7138 16.9551C91.6642 16.9493 91.6141 16.9583 91.5697 16.9811C91.5402 16.9962 91.5139 17.017 91.4925 17.0423C91.471 17.0676 91.4547 17.097 91.4445 17.1286C91.4343 17.1602 91.4305 17.1935 91.4332 17.2266C91.4359 17.2597 91.4451 17.292 91.4603 17.3215Z" fill="#D4D4D4"/>
<path d="M91.4806 20.4043C91.5034 20.4488 91.5388 20.4854 91.5824 20.5096C91.626 20.5339 91.6758 20.5447 91.7255 20.5406C91.7752 20.5365 91.8225 20.5178 91.8616 20.4867C91.9007 20.4557 91.9297 20.4137 91.945 20.3662C91.9602 20.3187 91.9611 20.2677 91.9475 20.2196C91.9338 20.1716 91.9062 20.1287 91.8683 20.0963C91.8303 20.064 91.7836 20.0436 91.7341 20.0379C91.6845 20.0321 91.6344 20.0411 91.59 20.0639C91.5604 20.0789 91.5341 20.0997 91.5125 20.125C91.491 20.1503 91.4747 20.1796 91.4645 20.2113C91.4543 20.2429 91.4505 20.2763 91.4533 20.3094C91.456 20.3426 91.4653 20.3748 91.4806 20.4043Z" fill="#D4D4D4"/>
<path d="M89.9805 14.8233C90.0294 14.8327 90.0801 14.8273 90.126 14.8079C90.1719 14.7884 90.2111 14.7558 90.2385 14.7141C90.2659 14.6724 90.2804 14.6235 90.2801 14.5735C90.2797 14.5236 90.2646 14.4748 90.2367 14.4335C90.2087 14.3921 90.1692 14.36 90.123 14.3412C90.0768 14.3223 90.0261 14.3176 89.9773 14.3277C89.9284 14.3377 89.8836 14.362 89.8486 14.3975C89.8135 14.433 89.7897 14.4781 89.7802 14.5271C89.7739 14.5597 89.7741 14.5933 89.7808 14.6258C89.7874 14.6584 89.8004 14.6893 89.819 14.7168C89.8376 14.7443 89.8614 14.7679 89.8891 14.7861C89.9168 14.8044 89.9479 14.817 89.9805 14.8233Z" fill="#D4D4D4"/>
<path d="M88.8926 13.7804C88.924 13.6445 88.8395 13.5088 88.7038 13.4773C88.5681 13.4458 88.4326 13.5305 88.4011 13.6664C88.3697 13.8023 88.4542 13.938 88.5899 13.9695C88.7256 14.001 88.8611 13.9163 88.8926 13.7804Z" fill="#D4D4D4"/>
<path d="M90.9521 16.0429C91.0013 16.0524 91.0522 16.0472 91.0984 16.0278C91.1445 16.0084 91.1839 15.9757 91.2115 15.9338C91.2391 15.892 91.2537 15.8428 91.2534 15.7927C91.2531 15.7425 91.238 15.6936 91.2099 15.652C91.1818 15.6105 91.1421 15.5783 91.0957 15.5594C91.0493 15.5405 90.9983 15.5358 90.9493 15.546C90.9003 15.5561 90.8553 15.5806 90.8202 15.6163C90.785 15.6521 90.7613 15.6974 90.7519 15.7467C90.7456 15.7793 90.7458 15.8129 90.7524 15.8454C90.7591 15.878 90.7721 15.9089 90.7907 15.9364C90.8093 15.9639 90.8331 15.9875 90.8608 16.0057C90.8885 16.024 90.9196 16.0366 90.9521 16.0429Z" fill="#D4D4D4"/>
<path d="M85.59 13.5544C85.5949 13.415 85.4861 13.2979 85.3469 13.293C85.2077 13.288 85.0908 13.397 85.0859 13.5364C85.0809 13.6759 85.1898 13.7929 85.329 13.7979C85.4682 13.8029 85.585 13.6938 85.59 13.5544Z" fill="#D4D4D4"/>
<path d="M84.0453 14.3639C84.083 14.3312 84.1103 14.2881 84.1235 14.24C84.1368 14.1918 84.1355 14.1408 84.1198 14.0934C84.1042 14.046 84.0748 14.0043 84.0355 13.9736C83.9962 13.9429 83.9487 13.9245 83.899 13.9208C83.8493 13.9171 83.7996 13.9283 83.7562 13.9529C83.7128 13.9775 83.6777 14.0144 83.6552 14.059C83.6328 14.1035 83.624 14.1538 83.63 14.2034C83.6361 14.2529 83.6566 14.2996 83.6891 14.3375C83.7329 14.3882 83.795 14.4194 83.8618 14.4244C83.9285 14.4293 83.9946 14.4076 84.0453 14.3639Z" fill="#D4D4D4"/>
<path d="M87.2377 13.4435C87.2629 13.3063 87.1723 13.1746 87.0353 13.1494C86.8983 13.1242 86.7668 13.215 86.7416 13.3522C86.7164 13.4894 86.8071 13.6211 86.9441 13.6463C87.0811 13.6715 87.2126 13.5807 87.2377 13.4435Z" fill="#D4D4D4"/>
<path d="M81.9633 16.0601L81.7144 16.4626L81.7574 16.4893L82.0064 16.0868L81.9633 16.0601Z" fill="#B9B9B9"/>
<path d="M81.6963 17.6758L81.4458 18.0783L81.4889 18.1052L81.7394 17.7027L81.6963 17.6758Z" fill="#B9B9B9"/>
<path d="M82.7145 14.9009L82.4656 15.3034L82.5087 15.3301L82.7576 14.9276L82.7145 14.9009Z" fill="#B9B9B9"/>
<path d="M81.9907 20.7792L81.7417 21.1817L81.7848 21.2084L82.0338 20.8059L81.9907 20.7792Z" fill="#B9B9B9"/>
<path d="M82.8688 22.1627L82.6199 22.5652L82.663 22.5919L82.9119 22.1894L82.8688 22.1627Z" fill="#B9B9B9"/>
<path d="M81.5209 19.2252L81.272 19.6277L81.3151 19.6545L81.564 19.252L81.5209 19.2252Z" fill="#B9B9B9"/>
<path d="M85.6135 23.7203L85.3645 24.1228L85.4076 24.1496L85.6565 23.7471L85.6135 23.7203Z" fill="#B9B9B9"/>
<path d="M87.2433 23.8772L86.9944 24.2797L87.0375 24.3065L87.2864 23.904L87.2433 23.8772Z" fill="#B9B9B9"/>
<path d="M84.1 23.1351L83.8511 23.5376L83.8942 23.5643L84.1431 23.1618L84.1 23.1351Z" fill="#B9B9B9"/>
<path d="M90.1794 22.6315L89.9304 23.034L89.9735 23.0608L90.2225 22.6583L90.1794 22.6315Z" fill="#B9B9B9"/>
<path d="M91.238 21.4762L90.989 21.8787L91.0321 21.9055L91.2811 21.503L91.238 21.4762Z" fill="#B9B9B9"/>
<path d="M88.7883 23.4012L88.5393 23.8037L88.5824 23.8304L88.8314 23.4279L88.7883 23.4012Z" fill="#B9B9B9"/>
<path d="M91.9628 18.4904L91.7139 18.8929L91.757 18.9197L92.0059 18.5172L91.9628 18.4904Z" fill="#B9B9B9"/>
<path d="M91.7856 16.9881L91.5366 17.3906L91.5797 17.4174L91.8287 17.0149L91.7856 16.9881Z" fill="#B9B9B9"/>
<path d="M91.8071 20.0729L91.5581 20.4753L91.6012 20.5021L91.8501 20.0996L91.8071 20.0729Z" fill="#B9B9B9"/>
<path d="M90.1288 14.3571L89.8799 14.7596L89.923 14.7863L90.1719 14.3838L90.1288 14.3571Z" fill="#B9B9B9"/>
<path d="M88.7514 13.5077L88.5024 13.9102L88.5455 13.9369L88.7945 13.5344L88.7514 13.5077Z" fill="#B9B9B9"/>
<path d="M91.103 15.576L90.854 15.9785L90.8971 16.0052L91.146 15.6027L91.103 15.576Z" fill="#B9B9B9"/>
<path d="M85.4423 13.3289L85.1934 13.7314L85.2364 13.7582L85.4854 13.3557L85.4423 13.3289Z" fill="#B9B9B9"/>
<path d="M83.9802 13.9547L83.7312 14.3572L83.7743 14.3839L84.0233 13.9814L83.9802 13.9547Z" fill="#B9B9B9"/>
<path d="M87.0873 13.1798L86.8384 13.5823L86.8815 13.609L87.1304 13.2065L87.0873 13.1798Z" fill="#B9B9B9"/>
<g style="mix-blend-mode:soft-light" opacity="0.53">
<path d="M98.1391 0.131367C94.1743 0.880693 90.7667 2.70193 87.8674 5.11003C87.6237 5.31524 87.3832 5.52356 87.1426 5.73187C86.9377 5.91454 86.7328 6.10343 86.5311 6.29231C86.3293 6.4812 86.1376 6.66698 85.9483 6.85586C85.8187 6.98334 85.6914 7.11315 85.5649 7.24452C82.6307 10.2581 80.2987 13.8384 78.4843 17.3208C74.7244 24.5295 73.1723 31.3255 73.0652 31.7919C73.0978 31.5797 73.1335 31.3652 73.1723 31.1468C73.1956 31.0224 73.2181 30.8957 73.2406 30.769C73.2438 30.747 73.2482 30.7252 73.2538 30.7037C73.2864 30.5311 73.3189 30.3516 73.3546 30.1759C73.3903 30.0002 73.4323 29.8043 73.4687 29.6186C73.478 29.5797 73.4881 29.5369 73.4943 29.4981C73.5238 29.3716 73.5531 29.2421 73.582 29.1094C73.6115 28.9788 73.641 28.849 73.6736 28.7208C73.6736 28.7044 73.6798 28.6912 73.6829 28.6749C73.7023 28.5809 73.7256 28.486 73.7512 28.3889C73.7869 28.2334 73.8288 28.0779 73.8653 27.9225C73.8847 27.8447 73.9041 27.76 73.9274 27.6815C73.9506 27.603 73.9693 27.5058 73.9957 27.418C74.022 27.3302 74.0407 27.2454 74.064 27.1576C74.0702 27.1374 74.0733 27.118 74.0802 27.0985C74.1291 26.9096 74.1811 26.7208 74.2355 26.535C74.2774 26.3756 74.3231 26.2186 74.3689 26.0593C74.4861 25.652 74.6095 25.2446 74.736 24.8373C74.8858 24.3655 75.0387 23.8898 75.1946 23.4203C75.5136 22.4689 75.8551 21.5276 76.2035 20.6119C76.2718 20.4331 76.3432 20.2504 76.4115 20.0748C76.4247 20.039 76.441 20.0033 76.4534 19.9667C76.5093 19.8237 76.5675 19.6807 76.6226 19.54C76.8763 18.908 77.1332 18.2893 77.3986 17.69C77.4894 17.4778 77.581 17.2726 77.6718 17.0681C77.7176 16.9671 77.7626 16.866 77.8084 16.7658C78.0357 16.2605 78.2639 15.7716 78.4913 15.3029C78.5371 15.208 78.5828 15.1171 78.6279 15.0254C78.8265 14.6181 79.0252 14.2279 79.22 13.8594C79.2751 13.7483 79.334 13.6441 79.3891 13.5368C79.3992 13.5205 79.4085 13.5011 79.4186 13.4847C79.4636 13.3969 79.5125 13.3122 79.5583 13.2275C79.646 13.0673 79.7306 12.9165 79.8152 12.7611C79.9417 12.5333 80.0721 12.3118 80.1955 12.1066C80.2381 12.0413 80.2731 11.976 80.3157 11.9115C80.3584 11.847 80.3933 11.7809 80.4368 11.7156C80.8528 11.0479 81.3145 10.3164 81.8337 9.55934C81.9214 9.43186 82.0091 9.30516 82.0968 9.17069C82.1845 9.03621 82.2791 8.91651 82.373 8.78203C82.4506 8.66855 82.5391 8.55428 82.6268 8.43691C82.7145 8.31953 82.7999 8.20372 82.8906 8.09178C82.9263 8.04281 82.9682 7.99384 83.0047 7.94487C83.0986 7.82128 83.1964 7.69769 83.2973 7.5772C83.4269 7.41397 83.5604 7.25462 83.697 7.0945C83.8079 6.96158 83.9212 6.83099 84.0384 6.7004C84.116 6.61567 84.1851 6.53406 84.2635 6.45322C84.3419 6.37238 84.4001 6.29776 84.4746 6.22469C84.5234 6.1695 84.5785 6.11431 84.6298 6.05912C84.6423 6.04233 84.6566 6.02695 84.6724 6.01326C84.7826 5.89589 84.8998 5.78007 85.017 5.66425C85.0527 5.62849 85.0946 5.58652 85.128 5.55698C85.15 5.53143 85.1739 5.50752 85.1994 5.48547C85.2972 5.38753 85.398 5.29347 85.502 5.19864C85.606 5.10381 85.703 5.01286 85.8039 4.92503C85.8559 4.87606 85.9087 4.8302 85.9591 4.78511C85.9652 4.77926 85.9717 4.7738 85.9785 4.76879C86.0142 4.73925 86.0468 4.70971 86.0825 4.67707C86.232 4.55011 86.3849 4.42315 86.5412 4.29619C86.6964 4.1656 86.8663 4.0389 87.0355 3.90753C87.1555 3.81633 87.2792 3.72512 87.4064 3.63392C87.4258 3.6176 87.4483 3.60516 87.4677 3.58884C87.5453 3.53365 87.6229 3.47768 87.7006 3.4256C87.8309 3.33466 87.9644 3.24682 88.101 3.15898C88.1367 3.13256 88.1786 3.11001 88.2143 3.08669C88.2663 3.05094 88.3183 3.01829 88.3695 2.98564C88.399 2.96932 88.4254 2.94989 88.4541 2.93356C88.4828 2.91724 88.4999 2.9048 88.5263 2.89159C88.5977 2.84573 88.6691 2.79987 88.7436 2.761C88.7497 2.75579 88.7565 2.75136 88.7637 2.74779L88.7831 2.73846C88.9065 2.66073 89.033 2.59155 89.1634 2.52004C89.2123 2.4905 89.2643 2.46174 89.3186 2.43531C89.3186 2.43531 89.3287 2.43531 89.3318 2.42909C89.3939 2.39333 89.4521 2.36069 89.5173 2.32804C89.5529 2.30748 89.5897 2.28906 89.6275 2.27285L89.7051 2.23321C89.7633 2.20056 89.8254 2.16792 89.8874 2.13838C90.069 2.04743 90.2514 1.9596 90.44 1.87487C90.5246 1.836 90.6123 1.79714 90.6968 1.76061C90.762 1.73185 90.8272 1.70231 90.8924 1.67588C90.9576 1.64945 91.0189 1.62069 91.0872 1.59115C96.5397 -0.650605 98.1391 0.131367 98.1391 0.131367Z" fill="white"/>
</g>
<g style="mix-blend-mode:soft-light" opacity="0.53">
<path d="M73.9078 32.3259L73.4499 33.0512L73.1938 32.8957L73.6408 32.1681L73.9078 32.3259Z" fill="white"/>
</g>
<path style="mix-blend-mode:soft-light" d="M99.6647 12.3452C99.6647 12.3553 99.6647 12.3646 99.6577 12.3748C99.6127 12.5932 99.5607 12.8077 99.5087 13.0199L99.4598 13.2057C99.4202 13.3612 99.3822 13.5081 99.3395 13.6581C99.3038 13.7724 99.2712 13.8866 99.2355 14.0001C99.1998 14.1136 99.1703 14.2154 99.1346 14.3227C99.0889 14.4727 99.0369 14.6196 98.9849 14.7658C98.9298 14.9383 98.8677 15.1047 98.8025 15.2741C98.7699 15.3689 98.7342 15.463 98.6954 15.5578C98.6178 15.7599 98.5402 15.955 98.4579 16.1509C98.4544 16.1557 98.4523 16.1613 98.4517 16.1672C98.3702 16.3561 98.2888 16.5411 98.2073 16.7269C98.1258 16.9127 98.0381 17.1016 97.9504 17.2842C97.5438 18.1393 97.1115 18.936 96.6886 19.669C96.6296 19.7732 96.5714 19.8773 96.5093 19.9799C96.2718 20.3872 96.0382 20.7782 95.8171 21.1459C95.7162 21.3154 95.6083 21.4879 95.4919 21.6667C95.3545 21.8851 95.2118 22.1067 95.0558 22.3383C94.9223 22.5368 94.7823 22.7386 94.6359 22.9438C94.4536 23.2081 94.2588 23.4786 94.0539 23.7553C93.9041 23.9636 93.7435 24.1758 93.5821 24.3873C93.4323 24.5894 93.2763 24.7915 93.1164 24.9936C92.9178 25.2509 92.7098 25.5113 92.4956 25.7709C92.2217 26.1168 91.9361 26.465 91.6365 26.8203C91.4868 26.9959 91.337 27.1755 91.1849 27.3543C90.7684 27.8429 90.3367 28.3339 89.8897 28.8273C89.6946 29.0449 89.4962 29.2631 89.2944 29.4818C89.2861 29.4898 89.2785 29.4986 89.2719 29.5082C88.9367 29.8665 88.6022 30.2249 88.2569 30.5793C88.1925 30.6485 88.1273 30.713 88.0621 30.7814C88.0486 30.7974 88.0344 30.8127 88.0194 30.8273C88.0095 30.8379 87.9989 30.8478 87.9876 30.8568C87.7268 31.1234 87.4669 31.3908 87.1999 31.6512C86.9329 31.9116 86.6699 32.1759 86.3998 32.4332C86.1297 32.6905 85.8729 32.9384 85.6067 33.1856C85.3405 33.4328 85.0503 33.694 84.7701 33.9451L84.6925 34.0135C84.4481 34.2288 84.2044 34.4402 83.9638 34.6485C83.7884 34.7985 83.6123 34.9455 83.4369 35.0916C83.2615 35.2377 83.1047 35.3652 82.9394 35.4958C82.7741 35.6264 82.6073 35.7632 82.4412 35.8899C82.2751 36.0166 82.1129 36.1472 81.9469 36.2715C81.7808 36.3959 81.6186 36.5187 81.4525 36.6361L81.2415 36.7916C81.2477 36.7815 81.2609 36.7752 81.2709 36.7651C81.5503 36.5242 82.7671 35.4593 84.4387 33.7453C88.2049 29.8852 94.2743 22.7238 97.1208 14.2597C97.179 14.0872 97.2341 13.9146 97.2892 13.742C97.3668 13.4847 97.4491 13.2275 97.522 12.9647C97.595 12.702 97.6772 12.4369 97.7432 12.1695C97.8208 11.8827 97.893 11.5928 97.9613 11.3028C98.8002 7.71246 98.9857 3.94329 98.1336 0.131367C98.1336 0.131367 99.5584 1.20327 100.014 7.06729C100.03 7.2725 100.043 7.48159 100.053 7.6837C100.053 7.71246 100.053 7.73888 100.053 7.76842C100.116 9.30429 99.9856 10.842 99.6647 12.3452Z" fill="url(#paint18_linear_192_121)"/>
<path style="mix-blend-mode:soft-light" d="M88.1342 30.72C86.6511 34.0135 83.9482 36.7403 82.7252 37.8712C82.3317 38.2335 82.0911 38.4317 82.0911 38.4317L81.2126 36.8157C81.2126 36.8157 81.2227 36.8094 81.2258 36.8063C81.3034 36.7511 81.3811 36.6952 81.4587 36.6369C82.4248 35.9171 83.6122 34.8973 84.718 33.907C85.0284 33.6295 85.3389 33.3496 85.6283 33.0823C86.7412 32.0663 87.6546 31.1895 87.9968 30.8576C88.0081 30.8485 88.0187 30.8387 88.0286 30.8281C88.0775 30.7822 88.1062 30.7503 88.1264 30.7332L88.1342 30.72Z" fill="url(#paint19_linear_192_121)"/>
<g style="mix-blend-mode:soft-light" opacity="0.33">
<path d="M80.7488 44.2351C81.8407 42.5094 82.0572 41.0403 82.0898 40.7613C82.0684 40.889 82.0367 41.0148 81.9951 41.1375C81.8158 41.7935 81.4946 42.5366 81.0002 43.4337C80.3709 44.5786 79.4295 46.1239 79.376 46.7077C79.3698 46.8305 79.4039 46.9005 79.4668 46.9354C79.4668 46.9323 79.5374 46.1488 80.7488 44.2351Z" fill="white"/>
</g>
<path d="M65.3667 5.93164C64.4871 5.1761 63.3347 4.79807 61.9094 4.79755C60.4841 4.79703 59.3314 5.19553 58.4514 5.99305C57.5718 6.79057 57.1321 7.78008 57.1321 8.96159C57.1321 10.1431 57.5718 11.1329 58.4514 11.9309C59.3309 12.7284 60.4835 13.1269 61.9094 13.1264C63.3637 13.1264 64.5231 12.7209 65.3876 11.9099C66.2521 11.0989 66.6844 10.075 66.6844 8.838C66.6844 7.65649 66.2451 6.68771 65.3667 5.93164Z" fill="white"/>
<path d="M65.8192 15.599V25.6434C65.435 26.3041 65.0873 26.9594 64.7684 27.6333C63.4902 30.3314 62.6475 33.3077 62.1919 36.7232C62.1308 37.1285 62.1147 37.5393 62.1438 37.9482H57.9998V15.599H65.8192Z" fill="white"/>
<path d="M52.7709 20.7541C51.6979 19.0223 50.2087 17.6687 48.3032 16.6935C46.3978 15.7182 44.2228 15.2295 41.7783 15.2275C39.3343 15.2275 37.166 15.7161 35.2735 16.6935C33.381 17.6708 31.8928 19.0244 30.8089 20.7541C29.7225 22.486 29.1805 24.4787 29.1831 26.7324C29.1857 28.9861 29.7276 30.9856 30.8089 32.7309C31.8923 34.4793 33.3805 35.8471 35.2735 36.8343C37.1665 37.8215 39.3356 38.3172 41.7806 38.3213C44.222 38.3213 46.397 37.8259 48.3056 36.8351C50.2141 35.8443 51.7025 34.4762 52.7709 32.7309C53.8403 30.9856 54.3747 28.9864 54.3742 26.7332C54.3737 24.48 53.8393 22.487 52.7709 20.7541ZM45.8548 29.6388C45.4435 30.4518 44.8881 31.0633 44.1887 31.4732C43.4902 31.8883 42.6847 32.0951 41.7829 32.0951C40.9518 32.108 40.133 31.893 39.4152 31.4732C38.7163 31.0623 38.1544 30.4508 37.7297 29.6388C37.3049 28.8267 37.0918 27.8582 37.0902 26.7332C37.0902 25.6045 37.3034 24.649 37.7297 23.8665C38.1155 23.1258 38.699 22.5069 39.4152 22.0787C40.133 21.6589 40.9518 21.4439 41.7829 21.4568C42.687 21.4568 43.4902 21.662 44.1887 22.0787C44.9018 22.5046 45.4796 23.1246 45.8548 23.8665C46.2687 24.649 46.4757 25.6045 46.4757 26.7332C46.4757 27.8618 46.2687 28.8304 45.8548 29.6388Z" fill="white"/>
<path d="M20.7917 28.8685C22.5308 28.0399 23.8959 26.8879 24.8737 25.404C25.9167 23.8255 26.4379 21.9512 26.4374 19.7809C26.4374 17.5858 25.9162 15.6838 24.8737 14.0747C23.8312 12.4657 22.358 11.237 20.4541 10.3887C18.5466 9.53835 16.2772 9.11291 13.6459 9.11239H0V37.9505H8.14378V30.2863H13.074L18.2936 37.949H27.014L20.7917 28.8685ZM16.9588 22.87C16.1217 23.6131 14.8542 23.9844 13.1562 23.9839H8.14378V15.5392H13.1547C14.8521 15.5392 16.1197 15.9094 16.9573 16.6499C17.7949 17.3905 18.2124 18.4341 18.2098 19.7809C18.2109 21.0993 17.7939 22.1289 16.9588 22.87Z" fill="white"/>
</g>
<defs>
<linearGradient id="paint0_linear_192_121" x1="63.4381" y1="56.1048" x2="74.403" y2="39.5603" gradientUnits="userSpaceOnUse">
<stop stop-color="#FF8533"/>
<stop offset="1" stop-color="#FFD052"/>
</linearGradient>
<linearGradient id="paint1_linear_192_121" x1="68.4505" y1="48.5888" x2="75.1245" y2="38.0267" gradientUnits="userSpaceOnUse">
<stop stop-color="#FFD052"/>
<stop offset="1" stop-color="#FFE9AE"/>
</linearGradient>
<linearGradient id="paint2_linear_192_121" x1="83.6144" y1="40.487" x2="72.3759" y2="29.1394" gradientUnits="userSpaceOnUse">
<stop stop-color="#3C4144"/>
<stop offset="1" stop-color="#A3A3A3"/>
</linearGradient>
<linearGradient id="paint3_linear_192_121" x1="68.1908" y1="28.242" x2="77.2352" y2="38.5616" gradientUnits="userSpaceOnUse">
<stop stop-color="#F02E54"/>
<stop offset="0.94" stop-color="#5C081E"/>
</linearGradient>
<linearGradient id="paint4_linear_192_121" x1="85.2722" y1="46.1978" x2="80.4596" y2="21.9868" gradientUnits="userSpaceOnUse">
<stop stop-color="#F02E54"/>
<stop offset="0.92" stop-color="#5C081E"/>
</linearGradient>
<linearGradient id="paint5_linear_192_121" x1="83.2684" y1="10.182" x2="95.5016" y2="39.0283" gradientUnits="userSpaceOnUse">
<stop stop-color="#EEF4FA"/>
<stop offset="0.29" stop-color="#DEE9F3"/>
<stop offset="0.67" stop-color="#D1DFED"/>
<stop offset="1" stop-color="#CCDCEB"/>
</linearGradient>
<linearGradient id="paint6_linear_192_121" x1="84.0484" y1="11.1132" x2="92.4832" y2="31.0024" gradientUnits="userSpaceOnUse">
<stop stop-color="#EEF4FA"/>
<stop offset="0.14" stop-color="#E1EAF2"/>
<stop offset="0.36" stop-color="#D2DEE9"/>
<stop offset="0.62" stop-color="#C9D7E4"/>
<stop offset="1" stop-color="#C6D5E2"/>
</linearGradient>
<linearGradient id="paint7_linear_192_121" x1="71.4446" y1="27.0801" x2="82.6469" y2="35.7417" gradientUnits="userSpaceOnUse">
<stop stop-color="#C7C7C7"/>
<stop offset="1" stop-color="#909090"/>
</linearGradient>
<linearGradient id="paint8_linear_192_121" x1="78.986" y1="30.847" x2="82.0543" y2="35.9064" gradientUnits="userSpaceOnUse">
<stop/>
<stop offset="1" stop-color="#1D262D" stop-opacity="0"/>
</linearGradient>
<linearGradient id="paint9_linear_192_121" x1="93.8731" y1="3.44503" x2="105.549" y2="12.7938" gradientUnits="userSpaceOnUse">
<stop stop-color="#F02E54"/>
<stop offset="0.97" stop-color="#5C081E"/>
</linearGradient>
<linearGradient id="paint10_linear_192_121" x1="114.097" y1="31.9489" x2="84.7137" y2="1.53255" gradientUnits="userSpaceOnUse">
<stop stop-color="#8D1931"/>
<stop offset="1" stop-color="#F02E54"/>
</linearGradient>
<linearGradient id="paint11_linear_192_121" x1="114.022" y1="33.872" x2="83.5159" y2="2.29226" gradientUnits="userSpaceOnUse">
<stop stop-color="#8D1931"/>
<stop offset="1" stop-color="#F02E54"/>
</linearGradient>
<linearGradient id="paint12_linear_192_121" x1="72.4895" y1="32.5792" x2="86.096" y2="44.7347" gradientUnits="userSpaceOnUse">
<stop stop-color="#F02E54"/>
<stop offset="1" stop-color="#5C081E"/>
</linearGradient>
<linearGradient id="paint13_linear_192_121" x1="88.3836" y1="20.9523" x2="93.873" y2="27.7804" gradientUnits="userSpaceOnUse">
<stop stop-color="#1D262D"/>
<stop offset="0.68" stop-color="#1D262D" stop-opacity="0.32"/>
<stop offset="1" stop-color="#1D262D" stop-opacity="0"/>
</linearGradient>
<linearGradient id="paint14_linear_192_121" x1="82.5706" y1="13.1183" x2="93.7712" y2="28.3039" gradientUnits="userSpaceOnUse">
<stop stop-color="#C7C7C7"/>
<stop offset="1" stop-color="#909090"/>
</linearGradient>
<linearGradient id="paint15_linear_192_121" x1="81.9398" y1="14.2988" x2="93.542" y2="25.3221" gradientUnits="userSpaceOnUse">
<stop stop-color="#ADE5FF"/>
<stop offset="1" stop-color="#76C9F0"/>
</linearGradient>
<linearGradient id="paint16_linear_192_121" x1="89.9554" y1="14.2028" x2="82.247" y2="22.3783" gradientUnits="userSpaceOnUse">
<stop stop-color="#F9FBFC"/>
<stop offset="1" stop-color="#F9FBFC" stop-opacity="0"/>
</linearGradient>
<linearGradient id="paint17_linear_192_121" x1="91.5379" y1="15.6938" x2="83.8295" y2="23.8693" gradientUnits="userSpaceOnUse">
<stop stop-color="#F9FBFC"/>
<stop offset="1" stop-color="#F9FBFC" stop-opacity="0"/>
</linearGradient>
<linearGradient id="paint18_linear_192_121" x1="104.028" y1="27.4266" x2="88.3116" y2="17.6291" gradientUnits="userSpaceOnUse">
<stop offset="0.57" stop-color="#0C0E0F"/>
<stop offset="1" stop-color="#1D262D" stop-opacity="0"/>
</linearGradient>
<linearGradient id="paint19_linear_192_121" x1="82.407" y1="28.6819" x2="86.2861" y2="37.3582" gradientUnits="userSpaceOnUse">
<stop stop-color="#1D262D"/>
<stop offset="0.29" stop-color="#1D262D" stop-opacity="0.9"/>
<stop offset="0.6" stop-color="#1D262D" stop-opacity="0.62"/>
<stop offset="0.92" stop-color="#1D262D" stop-opacity="0.16"/>
<stop offset="1" stop-color="#1D262D" stop-opacity="0"/>
</linearGradient>
<clipPath id="clip0_192_121">
<rect width="149" height="53" fill="white"/>
</clipPath>
</defs>
</svg>
