<svg width="106" height="106" viewBox="0 0 106 106" fill="none" xmlns="http://www.w3.org/2000/svg">
<path d="M42.7052 41.8151V37.7311C41.288 37.5298 39.8581 37.4263 38.427 37.4193C20.9195 37.4193 6.67578 51.6654 6.67578 69.1728C6.67578 79.9121 12.0431 89.4192 20.2307 95.1681C14.7483 89.3051 11.6998 81.5771 11.7045 73.55C11.7045 56.2915 25.5433 42.2176 42.7052 41.8151Z" fill="#00F2EA"/>
<path d="M43.4545 88.0497C51.2663 88.0497 57.6377 81.8354 57.9286 74.091L57.9554 4.95838H70.5853C70.3154 3.51446 70.1793 2.04959 70.1781 0.581238H52.9278L52.8987 69.7162C52.6113 77.4582 46.2364 83.6702 38.4269 83.6702C36.0824 83.6714 33.7728 83.1001 31.6995 82.0052C34.4163 85.796 38.7911 88.045 43.4545 88.0497ZM94.1768 28.4253V24.5834C89.5355 24.5881 84.9931 23.2372 81.1082 20.6984C84.5149 24.6206 89.1003 27.3316 94.1791 28.4253" fill="#00F2EA"/>
<path d="M81.1082 20.6949C77.3011 16.3387 75.2033 10.748 75.2057 4.96185H70.5842C71.7931 11.424 75.5966 17.1101 81.1082 20.6949ZM38.4269 54.6696C30.4219 54.6789 23.9353 61.1655 23.926 69.1705C23.9307 74.5599 26.9232 79.5025 31.6971 82.0064C29.9135 79.5467 28.9536 76.5879 28.9536 73.5499C28.9617 65.5449 35.4483 59.056 43.4545 59.0467C44.9484 59.0467 46.3807 59.2934 47.7327 59.7181V42.1071C46.3156 41.9058 44.8856 41.8022 43.4545 41.7953C43.2032 41.7953 42.9553 41.8092 42.7063 41.8139V55.3409C41.3217 54.9011 39.879 54.6742 38.4269 54.6696Z" fill="#FF004F"/>
<path d="M94.1768 28.4253V41.8325C85.2306 41.8325 76.9452 38.9714 70.177 34.1149V69.1716C70.177 86.679 55.9356 100.923 38.4282 100.923C31.6623 100.923 25.3886 98.7877 20.2319 95.1669C26.2252 101.63 34.6409 105.302 43.4545 105.3C60.962 105.3 75.2057 91.0562 75.2057 73.5511V38.4944C82.1973 43.5219 90.5944 46.2224 99.2056 46.212V28.957C97.4789 28.957 95.7999 28.7697 94.1757 28.4218" fill="#FF004F"/>
<path d="M70.1759 69.1705V34.1137C77.1675 39.1424 85.5646 41.8418 94.1758 41.8313V28.4253C89.0982 27.3304 84.5127 24.6183 81.1071 20.6949C75.5956 17.1101 71.792 11.424 70.5831 4.96185H57.9543L57.9276 74.0945C57.6379 81.8365 51.2653 88.0508 43.4534 88.0508C38.7912 88.0462 34.4153 85.7959 31.6996 82.0075C26.9257 79.5048 23.932 74.5622 23.9262 69.1716C23.9355 61.1666 30.4221 54.68 38.4271 54.6707C39.9187 54.6707 41.351 54.9151 42.7053 55.3421V41.815C25.5434 42.2176 11.7046 56.2915 11.7046 73.5499C11.7046 81.8958 14.9473 89.4936 20.2308 95.1681C25.5574 98.9181 31.9137 100.927 38.4271 100.922C55.9356 100.922 70.1759 86.6779 70.1759 69.1705Z" fill="white"/>
</svg>
