<svg width="106" height="106" viewBox="0 0 106 106" fill="none" xmlns="http://www.w3.org/2000/svg">
<path d="M99.64 54.1042C99.64 50.6592 99.3308 47.3467 98.7567 44.1667H53V62.9817H79.1467C77.9983 69.0325 74.5533 74.1559 69.3858 77.6009V89.835H85.1533C94.34 81.355 99.64 68.9 99.64 54.1042Z" fill="#4285F4"/>
<path d="M53.0001 101.583C66.1176 101.583 77.1151 97.255 85.1534 89.835L69.3859 77.6009C65.0576 80.5159 59.5367 82.2825 53.0001 82.2825C40.3684 82.2825 29.6359 73.7584 25.7934 62.275H9.62842V74.8184C17.6226 90.6742 34.0084 101.583 53.0001 101.583Z" fill="#34A853"/>
<path d="M25.7934 62.2308C24.8217 59.3158 24.2476 56.2242 24.2476 53C24.2476 49.7758 24.8217 46.6842 25.7934 43.7692V31.2258H9.62841C6.31591 37.7625 4.41675 45.1383 4.41675 53C4.41675 60.8617 6.31591 68.2375 9.62841 74.7742L22.2159 64.9692L25.7934 62.2308Z" fill="#FBBC05"/>
<path d="M53.0001 23.7617C60.1551 23.7617 66.5151 26.235 71.5942 31.005L85.5068 17.0925C77.0709 9.23085 66.1176 4.41669 53.0001 4.41669C34.0084 4.41669 17.6226 15.3259 9.62842 31.2259L25.7934 43.7692C29.6359 32.2859 40.3684 23.7617 53.0001 23.7617Z" fill="#EA4335"/>
</svg>
