<svg width="106" height="106" viewBox="0 0 106 106" fill="none" xmlns="http://www.w3.org/2000/svg">
<path d="M20.8396 26.7058C10.987 26.7058 3 34.8964 3 45C3 54.489 10.0449 62.2907 19.0637 63.2047L28.5877 93.8176C29.5466 96.8999 32.3993 99 35.6274 99C39.6992 99 43 95.6992 43 91.6274V64.637C51.9882 66.8836 60.5021 71.6081 68.723 76.17C71.6137 77.774 74.4683 79.3581 77.2944 80.8072C93.1554 88.9398 97.4316 72.8373 98.5804 58.9334C100.116 58.8268 101.107 58.5495 101.828 57.8284C103 56.6569 103 54.7712 103 51V39C103 35.2288 103 33.3431 101.828 32.1716C101.107 31.4505 100.116 31.1732 98.5804 31.0666C97.4316 17.1627 93.1554 1.06021 77.2944 9.19282C74.4683 10.6419 71.6138 12.2259 68.7231 13.83C60.3275 18.4888 51.626 23.3174 42.4259 25.5029C38.6242 26.406 36.7234 26.8576 35.8617 27.9479C35 29.0383 35 30.7428 35 34.1518V39C35 41.2092 33.2091 43 31 43C28.7909 43 27 41.2092 27 39V32.8662C27 30.8517 27 29.8444 26.6455 29.0594C26.2447 28.1719 25.5339 27.4611 24.6464 27.0603C23.8614 26.7058 22.8541 26.7058 20.8396 26.7058Z" fill="#E24639"/>
</svg>
